<svg version="1.1" id="Layer_1" xmlns="http://www.w3.org/2000/svg" xmlns:xlink="http://www.w3.org/1999/xlink" x="0px" y="0px" viewBox="0 0 987.19 455.04" style="enable-background:new 0 0 987.19 455.04;" xml:space="preserve" width="100%" height="100%" preserveAspectRatio="none"><style type="text/css"> .st0{fill:#FFFFFF;} .st1{fill:#FFF200;} </style><g><path class="st0" d="M83.94,104.34H60.23v38.32H48.69V55.09h11.55v38.2h23.71v-38.2h11.55v87.58H83.94V104.34z"/><path class="st0" d="M107.15,142.67v-10.81h11.05V65.53h-11.05V55.09h33.29v10.44h-11.05v66.33h11.05v10.81H107.15z"/><path class="st0" d="M163.41,105.32v37.34h-11.18V55.09h37.22v10.56h-26.04v28.99h24.57v10.69H163.41z"/><path class="st0" d="M199.27,142.67v-10.81h11.05V65.53h-11.05V55.09h33.29v10.44H221.5v66.33h11.06v10.81H199.27z"/><path class="st0" d="M281.93,142.67h-11.3V55.09h11.3v38.08l-0.12,2.09l24.2-40.17h13.14L299.37,86.9l21.5,55.77h-12.65L292,98.69 l-1.11-3.93l-8.97,14.25V142.67z"/><path class="st0" d="M330.81,142.67V55.09h11.55v76.52h26.41v11.06H330.81z"/><path class="st0" d="M377.36,117.61V55.09h11.92v61.91c0,10.93,3.32,15.6,11.18,15.6s11.06-4.54,11.06-15.6V55.09h11.91v62.52 c0,18.06-7.98,26.29-22.97,26.29C384.86,143.89,377.36,135.66,377.36,117.61z"/><path class="st0" d="M437.8,142.67V55.09h22.23c17.2,0,22.85,7.37,22.85,18.92v6.88c0,9.09-3.19,14.37-10.44,16.95 c8.11,2.33,11.67,7.74,11.67,15.84v8.23c0,12.77-5.65,20.76-21.99,20.76H437.8z M449.22,64.91v28.01h10.07 c9.09,0,12.16-3.56,12.16-12.28v-5.53c0-6.88-3.68-10.2-11.67-10.2H449.22z M449.22,102.99v29.36h11.3c8.6,0,11.67-2.7,11.67-11.18 v-6.76c0-7.74-3.56-11.42-12.65-11.42H449.22z"/><path class="st0" d="M496.26,142.67V55.09h22.23c17.2,0,22.85,7.37,22.85,18.92v6.88c0,9.09-3.19,14.37-10.44,16.95 c8.11,2.33,11.67,7.74,11.67,15.84v8.23c0,12.77-5.65,20.76-21.99,20.76H496.26z M507.68,64.91v28.01h10.07 c9.09,0,12.16-3.56,12.16-12.28v-5.53c0-6.88-3.68-10.2-11.67-10.2H507.68z M507.68,102.99v29.36h11.3c8.6,0,11.67-2.7,11.67-11.18 v-6.76c0-7.74-3.56-11.42-12.65-11.42H507.68z"/><path class="st0" d="M595.26,142.67h-40.54V55.09h39.31v10.44h-27.88V92.8h24.2v10.69h-24.2v28.37h29.11V142.67z"/><path class="st0" d="M617.24,142.67h-10.56V55.09h10.07l24.94,56.01l5.28,14.99l-1.84-15.97V55.09h10.69v87.58h-9.95l-25.43-56.63 l-5.16-17.57l1.96,19.04V142.67z"/><path class="st0" d="M732.33,104.34h-23.71v38.32h-11.55V55.09h11.55v38.2h23.71v-38.2h11.55v87.58h-11.55V104.34z"/><path class="st0" d="M799.27,142.67h-40.53V55.09h39.31v10.44h-27.88V92.8h24.2v10.69h-24.2v28.37h29.11V142.67z"/><path class="st0" d="M851.23,142.67h-40.53V55.09H850v10.44h-27.88V92.8h24.2v10.69h-24.2v28.37h29.11V142.67z"/><path class="st0" d="M873.82,105.32v37.34h-11.18V55.09h37.22v10.56h-26.04v28.99h24.57v10.69H873.82z"/><path class="st0" d="M936.34,65.77v76.89h-11.55V65.77h-15.85V55.09h43.24v10.69H936.34z"/><path class="st0" d="M168.13,243.46h29.11v0.12c1.35,8.23,8.35,11.42,19.28,11.42c9.95,0,14.25-2.7,14.25-7.49 c0.12-6.14-6.76-7-25.18-8.84c-21.13-2.21-34.76-7.98-34.76-26.41c0-17.44,14.49-28.99,41.15-28.99c26.9,0,41.52,9.34,44.83,30.34 h-27.76c-1.23-7.37-7.25-10.07-17.81-10.07c-10.07,0-13.39,3.19-13.39,7.25c0,5.16,5.28,6.51,22.97,8.23 c22.6,2.21,36.85,7.98,36.97,26.9c0,18.06-13.51,30.09-42.62,30.09C182.38,276.01,170.59,264.84,168.13,243.46z"/><path class="st0" d="M265.04,232.53v-4.67c0-28.5,19.16-44.22,47.78-44.22c26.65,0,44.59,12.16,46.92,37.71v1.11h-28.87v-0.61 c-0.98-9.09-6.76-14.62-18.06-14.62c-12.9,0-20.02,6.88-20.02,21.13v3.19c0,13.76,6.88,20.39,19.65,20.39 c12.04,0,17.57-5.77,18.55-15.6v-0.61h28.99v0.86c-1.97,26.16-18.92,39.31-48.27,39.31C282.24,275.89,265.04,262.5,265.04,232.53z"/><path class="st0" d="M429.14,241.99h-32.67v31.69h-26.9v-88.07h26.9v32.06h32.67v-32.06h26.78v88.07h-26.78V241.99z"/><path class="st0" d="M547.42,273.68h-77.39v-88.07h75.79v21.5h-50.12V220h44.83v18.3h-44.83v13.02h51.71V273.68z"/><path class="st0" d="M584.14,246.9v26.78h-26.16v-88.07h43.48c29.85,0,40.9,9.83,40.9,28.25c0,11.67-5.16,18.67-15.23,22.48 c9.83,2.95,13.76,9.46,13.76,22.6v8.97c0,2.46,0.86,4.67,2.83,5.77h-27.88c-1.96-0.98-2.58-3.44-2.58-5.65v-9.09 c0-9.21-3.44-12.04-14.12-12.04H584.14z M584.14,207.11v18.79h17.07c8.72,0,14.12-2.46,14.12-9.21v-0.49 c0-6.39-4.18-9.09-13.88-9.09H584.14z"/><path class="st0" d="M679.46,250.59v23.09h-26.04v-88.07h42.25c29.6,0,42.13,11.67,42.13,32.92c0,20.76-13.27,32.18-41.4,32.06 H679.46z M679.46,207.72v21.5h16.21c10.93,0,15.6-3.07,15.6-10.69c0-7.98-5.04-10.81-15.97-10.81H679.46z"/><path class="st0" d="M825.13,273.68h-77.38v-88.07h75.79v21.5h-50.12V220h44.83v18.3h-44.83v13.02h51.71V273.68z"/><path class="st0" d="M328.05,376.57v28.13h-11.3v-87.58h21.5c16.34,0,23.83,6.26,23.83,22.23v14.37c0,14.25-7.12,22.85-23.46,22.85 H328.05z M328.05,327.31v39.06h10.07c8.48,0,12.53-4.3,12.53-12.78v-14.13c0-9.09-4.05-12.16-12.65-12.16H328.05z"/><path class="st0" d="M384.92,369.32v35.38H373.5v-87.58h22.23c16.58,0,23.34,7.25,23.34,20.27v9.83c0,8.84-3.69,14.12-10.56,16.71 c6.76,2.09,9.58,7,9.58,16.34v19.28c0,2.46,0.86,3.93,2.33,5.16h-12.77c-0.98-0.98-1.47-3.07-1.47-5.4v-18.67 c0-7.62-2.33-11.3-10.93-11.3H384.92z M384.92,327.19v31.94h10.56c8.48,0,11.92-4.3,11.92-12.53v-8.23 c0-7.62-3.56-11.18-12.16-11.18H384.92z"/><path class="st0" d="M429.14,404.7v-10.81h11.05v-66.33h-11.05v-10.44h33.29v10.44h-11.06v66.33h11.06v10.81H429.14z"/><path class="st0" d="M470.28,384.31v-12.04h11.91v11.3c0,6.88,2.46,11.42,9.21,11.42c6.88,0,9.46-3.81,9.46-13.39v-64.49h11.91 v65.1c0,16.46-7.37,23.71-21.37,23.71C477.77,405.92,470.28,398.8,470.28,384.31z"/><path class="st0" d="M521.99,404.7v-9.95l31.57-66.82h-28.99v-10.81h41.4v10.44l-30.71,65.96h30.95v11.18H521.99z"/><path class="st0" d="M618.66,404.7h-40.54v-87.58h39.31v10.44h-27.88v27.27h24.2v10.69h-24.2v28.38h29.11V404.7z"/><path class="st0" d="M640.64,404.7h-10.56v-87.58h10.07l24.94,56.01l5.28,14.99l-1.84-15.97v-55.03h10.69v87.58h-9.95l-25.43-56.63 l-5.16-17.57l1.96,19.04V404.7z"/></g></svg>