<svg version="1.1" id="Layer_1" xmlns="http://www.w3.org/2000/svg" xmlns:xlink="http://www.w3.org/1999/xlink" x="0px" y="0px" viewBox="0 0 852.28 321.86" style="enable-background:new 0 0 852.28 321.86;" xml:space="preserve" width="100%" height="100%" preserveAspectRatio="none"><style type="text/css"> .st0{fill:#FFFFFF;} .st1{fill:#FFF200;} </style><g><path class="st0" d="M173.38,116.23h29.11v0.12c0.61,5.53,5.53,8.84,15.35,8.84c9.95,0,15.23-3.69,15.23-10.56 c0-7.25-5.16-10.44-14.13-10.44c-8.23,0-14,2.7-17.57,6.26c-0.12,0-0.98,0.61-1.11,0.74l-25.18-6.39l6.14-47.41h75.67 c0,18.79-3.32,21.86-24.57,21.86h-28.99c-0.61,5.4-1.47,11.79-2.21,16.83c5.53-5.53,13.76-9.21,25.67-9.21 c21.74,0,33.78,10.07,33.78,29.11c0,19.9-14.99,31.44-43.11,31.44C186.64,147.43,174.61,135.89,173.38,116.23z"/><path class="st0" d="M297.43,109.85v-3.44h27.51v2.95c0.12,9.95,3.07,14.37,12.04,14.37c8.48,0,12.16-3.93,12.16-17.07V57.4h27.51 v49.38c0,28.37-13.76,40.9-39.8,40.9C310.45,147.68,297.55,136.5,297.43,109.85z"/><path class="st0" d="M445.44,130.24h-35.13l-5.65,15.23h-27.64l36.11-88.07h29.48l36.11,88.07h-27.51L445.44,130.24z M427.63,83.44 l-9.95,27.02h20.27L427.63,83.44z"/><path class="st0" d="M543.46,130.24h-35.13l-5.65,15.23h-27.64l36.11-88.07h29.48l36.11,88.07h-27.51L543.46,130.24z M525.65,83.44 l-9.95,27.02h20.27L525.65,83.44z"/><path class="st0" d="M608.56,118.69v26.78h-26.16V57.4h43.48c29.85,0,40.9,9.83,40.9,28.25c0,11.67-5.16,18.67-15.23,22.48 c9.83,2.95,13.76,9.46,13.76,22.6v8.97c0,2.46,0.86,4.67,2.83,5.77h-27.88c-1.96-0.98-2.58-3.44-2.58-5.65v-9.09 c0-9.21-3.44-12.04-14.13-12.04H608.56z M608.56,78.89v18.79h17.07c8.72,0,14.13-2.46,14.13-9.21v-0.49 c0-6.39-4.18-9.09-13.88-9.09H608.56z"/><path class="st0" d="M68.12,280.48V192.9h11.55v76.53h26.41v11.05H68.12z"/><path class="st0" d="M157.54,280.48h-40.54V192.9h39.31v10.44h-27.88v27.27h24.2v10.69h-24.2v28.38h29.11V280.48z"/><path class="st0" d="M168.96,192.9h20.64c15.11,0,26.53,7.98,26.53,26.66v34.27c0,18.42-11.05,26.65-26.53,26.65h-20.64V192.9z M180.51,202.85v67.31h8.72c9.09,0,14.99-5.41,14.99-17.32v-32.55c0-12.04-6.02-17.44-15.23-17.44H180.51z"/><path class="st0" d="M269.93,280.48h-40.54V192.9h39.31v10.44h-27.88v27.27h24.2v10.69h-24.2v28.38h29.11V280.48z"/><path class="st0" d="M291.91,280.48h-10.56V192.9h10.07l24.94,56.01l5.28,14.99l-1.84-15.97V192.9h10.69v87.58h-9.95l-25.43-56.63 l-5.16-17.57l1.97,19.04V280.48z"/><path class="st0" d="M383.42,266.11c-1.97,10.44-7.86,15.6-18.06,15.6c-14,0-21.62-8.97-21.62-27.02v-35.74 c0-18.06,9.46-27.15,25.43-27.15c14.99,0,23.46,8.23,23.46,22.23v9.83h-12.04v-9.58c0-6.88-3.07-12.16-11.67-12.16 c-9.21,0-13.39,5.9-13.39,17.44v34.27c0,11.92,4.05,17.07,13.14,17.07c8.84,0,12.28-7.37,12.28-15.6v-9.7h-13.27v-10.32h24.93v45.2 h-7.37L383.42,266.11z"/><path class="st0" d="M439.55,264.15h-23.09l-3.44,16.34h-11.67l20.51-87.58h11.67l21.25,87.58h-11.67L439.55,264.15z M418.79,253.34h18.3L428.86,216l-1.11-12.77L426.65,216L418.79,253.34z"/><path class="st0" d="M475.78,245.11v35.38h-11.42V192.9h22.23c16.58,0,23.34,7.25,23.34,20.27V223c0,8.84-3.68,14.12-10.56,16.71 c6.76,2.09,9.58,7,9.58,16.34v19.28c0,2.46,0.86,3.93,2.33,5.16H498.5c-0.98-0.98-1.47-3.07-1.47-5.4v-18.67 c0-7.62-2.33-11.3-10.93-11.3H475.78z M475.78,202.98v31.94h10.56c8.48,0,11.92-4.3,11.92-12.53v-8.23 c0-7.62-3.56-11.18-12.16-11.18H475.78z"/><path class="st0" d="M556.35,264.15h-23.09l-3.44,16.34h-11.67l20.51-87.58h11.67l21.25,87.58h-11.67L556.35,264.15z M535.59,253.34h18.3L545.66,216l-1.11-12.77L543.45,216L535.59,253.34z"/><path class="st0" d="M591.72,280.48h-10.56V192.9h10.07l24.93,56.01l5.28,14.99l-1.84-15.97V192.9h10.69v87.58h-9.95l-25.43-56.63 l-5.16-17.57l1.97,19.04V280.48z"/><path class="st0" d="M667.75,203.59v76.89H656.2v-76.89h-15.85V192.9h43.24v10.69H667.75z"/><path class="st0" d="M691.09,280.48v-10.81h11.06v-66.33h-11.06V192.9h33.29v10.44h-11.05v66.33h11.05v10.81H691.09z"/><path class="st0" d="M776.7,280.48h-40.53V192.9h39.31v10.44h-27.88v27.27h24.2v10.69h-24.2v28.38h29.11V280.48z"/></g></svg>