<svg version="1.1" id="Layer_1" xmlns="http://www.w3.org/2000/svg" xmlns:xlink="http://www.w3.org/1999/xlink" x="0px" y="0px" viewBox="0 0 2000 2000" style="enable-background:new 0 0 2000 2000;" xml:space="preserve" width="100%" height="100%" preserveAspectRatio="none"><style type="text/css"> .st0{fill:#050505;} .st1{fill:#141414;} </style><rect x="-107" y="-102" class="st0" width="2220" height="2220"/><g><path class="st1" d="M215.59-34.23L345.06-68.3c-20.89,47.31-226.02,425.05-244.3,469.41l-135.28,35.6 C-13.49,389.93,197.07,11.32,215.59-34.23z M-103.52,140.15l-0.42-1.59c-14.05-53.37,16.02-98.01,78.37-114.42 C36.26,7.88,82.68,31.82,96.86,85.72l0.42,1.59c14.05,53.37-14.07,94.67-78.54,111.64C-48.9,216.74-89.34,194.05-103.52,140.15z M24.61,105.3l-0.14-0.53c-4.87-18.5-17.8-24.7-35.24-20.11c-17.44,4.59-25.64,16.35-20.78,34.85l0.14,0.53 c4.59,17.44,16.99,23.78,34.96,19.05C20.47,134.64,29.2,122.74,24.61,105.3z M215.82,284.38l-0.42-1.58 c-14.18-53.9,15.88-98.54,78.23-114.95c61.83-16.27,108.77,7.54,123.1,61.96l0.42,1.58c14.05,53.37-14.6,94.81-79.07,111.78 C270.97,360.83,230,338.28,215.82,284.38z M343.95,249.53l-0.14-0.53c-4.87-18.5-17.8-24.7-35.24-20.11s-25.64,16.35-20.78,34.85 l0.14,0.53c4.45,16.91,16.85,23.25,34.82,18.52C340.19,278.21,348.4,266.44,343.95,249.53z"/></g><g><path class="st1" d="M1026.59,644.77l129.46-34.07c-20.89,47.31-226.02,425.05-244.3,469.41l-135.28,35.6 C797.51,1068.93,1008.07,690.32,1026.59,644.77z M707.48,819.15l-0.42-1.59c-14.05-53.37,16.02-98.01,78.37-114.42 c61.83-16.27,108.24,7.67,122.43,61.57l0.42,1.59c14.05,53.37-14.07,94.67-78.54,111.64C762.1,895.74,721.66,873.05,707.48,819.15z M835.61,784.3l-0.14-0.53c-4.87-18.5-17.8-24.7-35.24-20.11c-17.44,4.59-25.64,16.35-20.78,34.85l0.14,0.53 c4.59,17.44,16.99,23.78,34.96,19.05C831.47,813.64,840.2,801.74,835.61,784.3z M1026.82,963.38l-0.42-1.58 c-14.18-53.9,15.88-98.54,78.23-114.95c61.83-16.27,108.77,7.54,123.1,61.96l0.42,1.58c14.05,53.37-14.6,94.81-79.07,111.78 C1081.97,1039.83,1041,1017.28,1026.82,963.38z M1154.95,928.53l-0.14-0.53c-4.87-18.5-17.8-24.7-35.24-20.11 c-17.44,4.59-25.64,16.35-20.78,34.85l0.14,0.53c4.45,16.91,16.85,23.25,34.82,18.52C1151.19,957.21,1159.4,945.44,1154.95,928.53z "/></g><g><path class="st1" d="M377.59,1263.77l129.46-34.07c-20.89,47.31-226.02,425.05-244.3,469.41l-135.28,35.6 C148.51,1687.93,359.07,1309.32,377.59,1263.77z M58.48,1438.15l-0.42-1.59c-14.05-53.37,16.02-98.01,78.37-114.42 c61.83-16.27,108.24,7.67,122.43,61.57l0.42,1.59c14.05,53.37-14.07,94.67-78.54,111.64C113.1,1514.74,72.66,1492.05,58.48,1438.15 z M186.61,1403.3l-0.14-0.53c-4.87-18.5-17.8-24.7-35.24-20.11s-25.64,16.35-20.78,34.85l0.14,0.53 c4.59,17.44,16.99,23.78,34.96,19.05C182.47,1432.64,191.2,1420.74,186.61,1403.3z M377.82,1582.38l-0.42-1.58 c-14.18-53.9,15.88-98.54,78.23-114.95c61.83-16.27,108.77,7.54,123.1,61.96l0.42,1.58c14.05,53.37-14.6,94.81-79.07,111.78 C432.97,1658.83,392,1636.28,377.82,1582.38z M505.95,1547.53l-0.14-0.53c-4.87-18.5-17.8-24.7-35.24-20.11 s-25.64,16.35-20.78,34.85l0.14,0.53c4.45,16.91,16.85,23.25,34.82,18.52C502.19,1576.21,510.4,1564.44,505.95,1547.53z"/></g><g><path class="st1" d="M2025.59,1132.77l129.46-34.07c-20.89,47.31-226.02,425.05-244.3,469.41l-135.28,35.6 C1796.51,1556.93,2007.07,1178.32,2025.59,1132.77z M1706.48,1307.15l-0.42-1.59c-14.05-53.37,16.02-98.01,78.37-114.42 c61.83-16.27,108.24,7.67,122.43,61.57l0.42,1.59c14.05,53.37-14.07,94.67-78.54,111.64 C1761.1,1383.74,1720.66,1361.05,1706.48,1307.15z M1834.61,1272.3l-0.14-0.53c-4.87-18.5-17.8-24.7-35.24-20.11 c-17.44,4.59-25.64,16.35-20.78,34.85l0.14,0.53c4.59,17.44,16.99,23.78,34.96,19.05 C1830.47,1301.64,1839.2,1289.74,1834.61,1272.3z M2025.82,1451.38l-0.42-1.58c-14.18-53.9,15.88-98.54,78.23-114.95 c61.83-16.27,108.77,7.54,123.1,61.96l0.42,1.58c14.05,53.37-14.6,94.81-79.07,111.78 C2080.97,1527.83,2040,1505.28,2025.82,1451.38z M2153.95,1416.53l-0.14-0.53c-4.87-18.5-17.8-24.7-35.24-20.11 c-17.44,4.59-25.64,16.35-20.78,34.85l0.14,0.53c4.45,16.91,16.85,23.25,34.82,18.52 C2150.19,1445.21,2158.4,1433.44,2153.95,1416.53z"/></g><g><path class="st1" d="M865.4,196.37l102.64,17.09c-29.88,26.88-295.65,229.33-322.73,254.96l-107.24-17.86 C567.87,424.1,837.76,222.77,865.4,196.37z M583.62,218.34l0.21-1.26c7.05-42.31,42.58-64.38,92.01-56.15 c49.01,8.16,74.29,39.92,67.18,82.65l-0.21,1.26c-7.05,42.31-40.14,62.63-91.24,54.12C597.94,290.04,576.5,261.07,583.62,218.34z M685.55,234.45l0.07-0.42c2.44-14.66-4.75-23.18-18.58-25.48c-13.82-2.3-23.39,3.42-25.83,18.09l-0.07,0.42 c-2.3,13.82,4.47,22.27,18.72,24.64C673.27,253.93,683.25,248.28,685.55,234.45z M764.06,422.32l0.21-1.26 c7.11-42.73,42.65-64.8,92.08-56.57c49.01,8.16,74.71,39.99,67.53,83.14l-0.21,1.26c-7.05,42.31-40.55,62.56-91.66,54.05 C778.8,494.09,756.94,465.05,764.06,422.32z M866,438.44l0.07-0.42c2.44-14.66-4.75-23.18-18.58-25.48 c-13.82-2.3-23.39,3.42-25.83,18.09l-0.07,0.42c-2.23,13.41,4.54,21.85,18.78,24.22C854.2,457.57,863.76,451.84,866,438.44z"/></g><g><path class="st1" d="M2010.4-64.63l102.64,17.09c-29.88,26.88-295.65,229.33-322.73,254.96l-107.24-17.86 C1712.87,163.1,1982.76-38.23,2010.4-64.63z M1728.62-42.66l0.21-1.26c7.05-42.31,42.58-64.38,92.01-56.15 c49.01,8.16,74.29,39.92,67.18,82.65l-0.21,1.26c-7.05,42.31-40.14,62.63-91.24,54.12C1742.94,29.04,1721.5,0.07,1728.62-42.66z M1830.55-26.55l0.07-0.42c2.44-14.66-4.75-23.18-18.58-25.48s-23.39,3.42-25.83,18.09l-0.07,0.42 c-2.3,13.82,4.47,22.27,18.72,24.64C1818.27-7.07,1828.25-12.72,1830.55-26.55z M1909.06,161.32l0.21-1.26 c7.11-42.73,42.65-64.8,92.08-56.57c49.01,8.16,74.71,39.99,67.53,83.14l-0.21,1.26c-7.05,42.31-40.56,62.56-91.66,54.05 C1923.8,233.09,1901.94,204.05,1909.06,161.32z M2011,177.44l0.07-0.42c2.44-14.66-4.75-23.18-18.58-25.48s-23.39,3.42-25.83,18.09 l-0.07,0.42c-2.23,13.41,4.54,21.85,18.78,24.22C1999.2,196.57,2008.76,190.84,2011,177.44z"/></g><g><path class="st1" d="M533.4,1864.37l102.64,17.09c-29.88,26.88-295.65,229.33-322.73,254.96l-107.24-17.86 C235.87,2092.1,505.76,1890.77,533.4,1864.37z M251.62,1886.34l0.21-1.26c7.05-42.31,42.58-64.38,92.01-56.15 c49.01,8.16,74.29,39.93,67.18,82.66l-0.21,1.26c-7.05,42.31-40.14,62.63-91.24,54.12C265.94,1958.04,244.5,1929.07,251.62,1886.34 z M353.55,1902.45l0.07-0.42c2.44-14.66-4.75-23.18-18.58-25.48s-23.39,3.42-25.83,18.09l-0.07,0.42 c-2.3,13.82,4.47,22.27,18.72,24.64C341.27,1921.93,351.25,1916.28,353.55,1902.45z M432.06,2090.32l0.21-1.26 c7.11-42.73,42.65-64.8,92.08-56.57c49.01,8.16,74.71,39.99,67.53,83.14l-0.21,1.26c-7.05,42.31-40.55,62.56-91.66,54.05 C446.8,2162.09,424.94,2133.05,432.06,2090.32z M534,2106.44l0.07-0.42c2.44-14.66-4.75-23.18-18.58-25.48 c-13.82-2.3-23.39,3.42-25.83,18.09l-0.07,0.42c-2.23,13.41,4.54,21.85,18.78,24.22C522.2,2125.57,531.76,2119.84,534,2106.44z"/></g><g><path class="st1" d="M1498.93,1069.63l84,9.05c-22.96,23.19-228.93,199.75-249.69,221.79l-87.77-9.46 C1268.4,1268.16,1477.76,1092.32,1498.93,1069.63z M1271.53,1100.62l0.11-1.03c3.73-34.63,31.5-54.18,71.96-49.82 c40.12,4.32,62.09,28.89,58.33,63.86l-0.11,1.03c-3.73,34.63-29.6,52.65-71.43,48.15 C1286.5,1158.08,1267.76,1135.6,1271.53,1100.62z M1354.92,1108.91l0.04-0.34c1.29-12-4.94-18.57-16.25-19.79 c-11.31-1.22-18.8,3.87-20.09,15.87l-0.04,0.34c-1.22,11.31,4.67,17.85,16.33,19.1C1345.88,1125.28,1353.7,1120.23,1354.92,1108.91 z M1427.36,1257.54l0.11-1.03c3.77-34.97,31.54-54.53,72-50.17c40.12,4.32,62.44,28.92,58.63,64.24l-0.11,1.03 c-3.73,34.63-29.95,52.62-71.78,48.11C1442.67,1315.03,1423.59,1292.51,1427.36,1257.54z M1510.75,1265.83l0.04-0.34 c1.29-12-4.94-18.57-16.25-19.79c-11.31-1.22-18.8,3.87-20.09,15.87l-0.04,0.34c-1.18,10.97,4.7,17.5,16.36,18.76 C1502.08,1281.89,1509.57,1276.8,1510.75,1265.83z"/></g><g><path class="st1" d="M1790.41,1740.12l103.45,11.14c-28.28,28.56-281.93,245.99-307.5,273.14l-108.1-11.64 C1506.5,1984.62,1764.33,1768.07,1790.41,1740.12z M1510.36,1778.3l0.14-1.27c4.59-42.65,38.8-66.73,88.62-61.36 c49.4,5.32,76.47,35.58,71.83,78.64l-0.14,1.27c-4.59,42.65-36.46,64.84-87.97,59.29 C1528.79,1849.06,1505.72,1821.37,1510.36,1778.3z M1613.05,1788.51l0.05-0.42c1.59-14.78-6.08-22.87-20.01-24.37 c-13.93-1.5-23.15,4.77-24.74,19.55l-0.05,0.42c-1.5,13.93,5.75,21.98,20.1,23.52C1601.91,1808.67,1611.55,1802.44,1613.05,1788.51 z M1702.26,1971.54l0.14-1.27c4.64-43.07,38.84-67.15,88.67-61.78c49.4,5.32,76.89,35.62,72.21,79.11l-0.14,1.27 c-4.59,42.65-36.88,64.8-88.39,59.25C1721.12,2042.34,1697.62,2014.61,1702.26,1971.54z M1804.96,1981.75l0.05-0.42 c1.59-14.78-6.08-22.87-20.01-24.37s-23.15,4.77-24.74,19.55l-0.05,0.42c-1.46,13.51,5.79,21.55,20.15,23.1 C1794.28,2001.53,1803.5,1995.26,1804.96,1981.75z"/></g><g><path class="st1" d="M1333.37-27.86l122.91-27.32c-21.35,43.7-227.86,391.26-246.64,432.29l-128.43,28.54 C1102.67,362.46,1314.31,14.29,1333.37-27.86z M1027.13,124.44l-0.33-1.51c-11.26-50.67,18.61-91.53,77.81-104.69 c58.7-13.05,101.45,11.14,112.82,62.31l0.33,1.51c11.26,50.67-16.66,88.46-77.87,102.07 C1075.68,198.41,1038.5,175.61,1027.13,124.44z M1148.81,96.34l-0.11-0.5c-3.9-17.56-15.83-23.86-32.39-20.18 c-16.55,3.68-24.69,14.44-20.79,32l0.11,0.5c3.68,16.56,15.11,22.97,32.16,19.17C1143.85,123.77,1152.49,112.9,1148.81,96.34z M1322.01,271.59l-0.33-1.5c-11.37-51.17,18.5-92.03,77.7-105.19c58.7-13.05,101.95,11.03,113.44,62.71l0.33,1.5 c11.26,50.67-17.16,88.57-78.37,102.18C1371.06,345.44,1333.38,322.76,1322.01,271.59z M1443.69,243.49l-0.11-0.5 c-3.9-17.56-15.83-23.86-32.39-20.18s-24.69,14.44-20.79,32l0.11,0.5c3.57,16.05,15,22.46,32.05,18.67 C1439.12,270.3,1447.26,259.54,1443.69,243.49z"/></g><g><path class="st1" d="M1935.42,460.6l180.3,31.2c-52.84,46.94-522.46,399.98-570.37,444.74l-188.39-32.6 C1409.67,857.73,1886.51,506.71,1935.42,460.6z M1439.65,496.08l0.38-2.21c12.86-74.33,75.6-112.74,162.43-97.71 c86.1,14.9,130.2,71.04,117.21,146.1l-0.38,2.21c-12.86,74.33-71.28,109.69-161.06,94.16 C1464.04,622.33,1426.67,571.14,1439.65,496.08z M1618.73,525.55l0.13-0.74c4.46-25.76-8.1-40.81-32.38-45.02 c-24.28-4.2-41.17,5.76-45.62,31.52l-0.13,0.74c-4.2,24.28,7.62,39.22,32.64,43.54C1596.91,559.68,1614.53,549.84,1618.73,525.55z M1754.69,856.8l0.38-2.21c12.99-75.06,75.72-113.47,162.56-98.45c86.1,14.9,130.93,71.16,117.82,146.96l-0.38,2.21 c-12.86,74.33-72.01,109.57-161.79,94.03C1779.81,983.18,1741.7,931.86,1754.69,856.8z M1933.76,886.27l0.13-0.74 c4.46-25.76-8.1-40.81-32.38-45.02c-24.28-4.2-41.17,5.76-45.62,31.52l-0.13,0.74c-4.07,23.55,7.74,38.48,32.76,42.81 C1912.81,919.78,1929.69,909.82,1933.76,886.27z"/></g><g><path class="st1" d="M1279.84,1398.29l173.54,58c-59.31,38.45-576.75,316.71-630.86,353.74l-181.33-60.61 C700.26,1711.68,1224.54,1436.5,1279.84,1398.29z M784.38,1358.68l0.71-2.13c23.91-71.54,91.72-100.06,175.3-72.13 c82.87,27.7,118.01,89.84,93.86,162.09l-0.71,2.13c-23.91,71.54-86.99,97.7-173.4,68.82 C789.48,1487.16,760.24,1430.93,784.38,1358.68z M956.98,1414.79l0.24-0.71c8.29-24.79-1.86-41.57-25.23-49.38 c-23.37-7.81-41.57-0.51-49.85,24.29l-0.24,0.71c-7.81,23.37,1.62,39.91,25.7,47.96C930.27,1445.24,949.17,1438.17,956.98,1414.79z M1041.48,1762.74l0.71-2.12c24.15-72.25,91.95-100.77,175.53-72.83c82.87,27.7,118.72,90.08,94.33,163.03l-0.71,2.12 c-23.91,71.54-87.7,97.47-174.11,68.58C1047.28,1891.45,1017.33,1834.99,1041.48,1762.74z M1214.07,1818.85l0.24-0.71 c8.29-24.79-1.86-41.57-25.23-49.38c-23.37-7.81-41.57-0.51-49.85,24.29l-0.24,0.71c-7.58,22.67,1.86,39.21,25.94,47.26 C1188.31,1848.82,1206.5,1841.52,1214.07,1818.85z"/></g><g><path class="st1" d="M446.81,615.43l180.63,29.22c-52.32,47.52-518.04,405.68-565.47,450.96l-188.74-30.53 C-74.56,1018.3,398.41,662.08,446.81,615.43z M-48.53,656.35l0.36-2.21c12.05-74.46,74.36-113.56,161.35-99.48 c86.26,13.95,130.97,69.61,118.8,144.81l-0.36,2.21c-12.05,74.46-70.07,110.47-160.02,95.92 C-22.76,782.32-60.7,731.55-48.53,656.35z M130.86,683.85l0.12-0.74c4.17-25.8-8.54-40.72-32.87-44.66 c-24.33-3.94-41.1,6.21-45.28,32.02l-0.12,0.74c-3.94,24.33,8.04,39.13,33.11,43.18C109.41,718.21,126.92,708.18,130.86,683.85z M270.43,1013.59l0.36-2.21c12.17-75.2,74.47-114.3,161.47-100.22c86.26,13.95,131.71,69.73,119.42,145.66l-0.36,2.21 c-12.05,74.46-70.81,110.35-160.75,95.8C296.94,1139.68,258.27,1088.79,270.43,1013.59z M449.82,1041.1l0.12-0.74 c4.17-25.8-8.54-40.72-32.87-44.66c-24.33-3.94-41.1,6.21-45.28,32.02l-0.12,0.74c-3.82,23.59,8.16,38.39,33.23,42.45 C429.23,1074.84,446,1064.69,449.82,1041.1z"/></g></svg>