<svg version="1.1" id="Layer_1" xmlns="http://www.w3.org/2000/svg" xmlns:xlink="http://www.w3.org/1999/xlink" x="0px" y="0px" viewBox="0 0 740.1 447.38" style="enable-background:new 0 0 740.1 447.38;" xml:space="preserve" width="100%" height="100%" preserveAspectRatio="none"><style type="text/css"> .st0{fill:#FFFFFF;} .st1{fill:#FFF200;} </style><g><path class="st1" d="M30.76,70.02v-2.4c0-17.47,11.78-27.07,28.87-27.07c16.72,0,28.65,9.52,28.65,27.07v2.48 c0,18.15-11.55,26.77-28.8,26.77C41.64,96.87,30.76,88.4,30.76,70.02z M71.34,69.72V68c0-8.92-4.28-13.05-11.78-13.05 c-7.65,0-11.85,4.35-11.85,12.97v1.8c0,8.4,4.2,12.67,11.77,12.67C67.06,82.4,71.34,78.5,71.34,69.72z"/><path class="st1" d="M93.99,70.02v-2.4c0-17.47,11.77-27.07,28.87-27.07c16.72,0,28.65,9.52,28.65,27.07v2.48 c0,18.15-11.55,26.77-28.8,26.77C104.86,96.87,93.99,88.4,93.99,70.02z M134.56,69.72V68c0-8.92-4.28-13.05-11.77-13.05 c-7.65,0-11.85,4.35-11.85,12.97v1.8c0,8.4,4.2,12.67,11.77,12.67C130.29,82.4,134.56,78.5,134.56,69.72z"/><path class="st1" d="M182.64,72.12l-8.17,8.47v14.92h-16.2V41.75h16.2v21.07l19.88-21.07h19.95l-19.5,20.62l19.95,33.15h-18.6 L182.64,72.12z"/><path class="st1" d="M268.51,56.22v39.3h-16.5v-39.3h-15.9V41.75h48.75v14.47H268.51z"/><path class="st1" d="M290.41,95.52V80.67h11.62v-24.3h-11.62V41.75h39.07v14.62h-11.7v24.3h11.7v14.85H290.41z"/><path class="st1" d="M333.31,73.77v-2.1h16.8v1.8c0.08,6.08,1.88,8.77,7.35,8.77c5.17,0,7.42-2.4,7.42-10.42V41.75h16.8V71.9 c0,17.32-8.4,24.97-24.3,24.97C341.26,96.87,333.38,90.05,333.31,73.77z"/><path class="st1" d="M389.78,41.75h24.37c17.62,0,28.87,8.1,28.87,25.8v2.4c0,17.55-11.25,25.57-28.5,25.57h-24.75V41.75z M405.98,55.55v26.02h7.58c8.77,0,12.75-3.68,12.75-12.3V68c0-8.85-4.05-12.45-13.05-12.45H405.98z"/><path class="st1" d="M497.11,95.52h-47.25V41.75h46.27v13.12h-30.6v7.88h27.37v11.17h-27.37v7.95h31.57V95.52z"/><path class="st1" d="M519.08,63.72v31.8h-15.52V41.75h15.67l23.32,30.9v-30.9h15.52v53.77h-15.15L519.08,63.72z"/><path class="st1" d="M563.03,77.07h17.77v0.08c0.83,5.02,5.1,6.97,11.77,6.97c6.08,0,8.7-1.65,8.7-4.57 c0.08-3.75-4.12-4.27-15.38-5.4c-12.9-1.35-21.22-4.88-21.22-16.12c0-10.65,8.85-17.7,25.12-17.7c16.42,0,25.35,5.7,27.37,18.52 h-16.95c-0.75-4.5-4.42-6.15-10.88-6.15c-6.15,0-8.17,1.95-8.17,4.42c0,3.15,3.22,3.97,14.02,5.02c13.8,1.35,22.5,4.87,22.57,16.42 c0,11.02-8.25,18.37-26.02,18.37C571.73,96.95,564.53,90.12,563.03,77.07z"/></g><g><g><path class="st0" d="M31.31,253.77V127.44h63.78c40,0,57.26,10.4,57.26,33.48v0.18c0,15.15-7.22,23.43-20.97,27.49 c16.21,3.88,24.14,11.98,24.14,28.19v0.35c0,25.37-19.73,36.65-57.44,36.65H31.31z M69.19,155.98v21.14h25.55 c12.33,0,18.85-2.82,18.85-10.57v-0.18c0-7.75-5.29-10.4-19.2-10.4H69.19z M69.19,201.26v22.38h22.91 c18.68,0,23.26-3.35,23.26-11.1v-0.18c0-8.28-5.29-11.1-22.55-11.1H69.19z"/><path class="st0" d="M169.27,253.77V127.44h39.64v89.86h63.78v36.47H169.27z"/><path class="st0" d="M377,231.92H326.6l-8.1,21.85h-39.64l51.8-126.33h42.29l51.8,126.33h-39.47L377,231.92z M351.45,164.79 l-14.27,38.76h29.07L351.45,164.79z"/><path class="st0" d="M423.16,194.74v-6.7c0-40.88,27.49-63.43,68.54-63.43c38.23,0,63.96,17.44,67.31,54.09v1.59h-41.4v-0.88 c-1.41-13.04-9.69-20.97-25.9-20.97c-18.5,0-28.72,9.87-28.72,30.31v4.58c0,19.73,9.87,29.25,28.19,29.25 c17.27,0,25.2-8.28,26.61-22.38v-0.88h41.58v1.23c-2.82,37.53-27.13,56.38-69.24,56.38C447.83,256.94,423.16,237.73,423.16,194.74 z"/><path class="st0" d="M630.37,198.79l-19.2,19.91v35.06H573.1V127.44h38.06v49.51l46.69-49.51h46.87l-45.81,48.45l46.87,77.88 h-43.69L630.37,198.79z"/></g><g><path class="st0" d="M405.86,290.56h33.34c22.35,0,38.75,10.99,38.75,38.39v52.45c0,27.21-16.22,38.39-38.93,38.39h-33.16V290.56z M429.11,310.56v88.68h9.01c9.73,0,15.68-5.95,15.68-20.01v-48.66c0-14.24-6.13-20.01-15.86-20.01H429.11z"/><path class="st0" d="M537.61,400.68h-27.4l-3.6,19.11h-23.25l28.66-129.23h23.25l29.38,129.23H541.4L537.61,400.68z M514.18,380.32h19.47l-8.47-43.08l-1.44-18.02l-1.44,18.02L514.18,380.32z"/><path class="st0" d="M580.51,419.79v-46.32l-26.31-82.91h24.15l12.98,46.86l1.44,10.99l1.44-10.99l13.52-46.86h23.97l-27.21,82.91 v46.32H580.51z"/><path class="st0" d="M634.76,388.07v-17.3h24.15v16.94c0,8.11,2.88,13.16,12.26,13.16c8.47,0,11.35-5.23,11.35-12.44v-6.67 c0-10.81-9.91-15.68-20.55-21.27c-12.44-6.49-25.77-14.24-25.77-34.25v-5.41c0-19.83,11.17-32.08,34.24-32.08 c23.07,0,33.7,11.54,33.7,30.28v14.06h-22.89v-12.62c0-8.29-3.07-12.26-11-12.26c-7.75,0-10.81,5.05-10.81,12.8v3.6 c0,9.91,9.73,14.42,20.19,19.83c12.44,6.49,26.13,14.42,26.13,34.61v9.91c0,20.55-11.89,32.8-34.96,32.8 C644.14,421.77,634.76,410.06,634.76,388.07z"/></g><g><rect x="301.95" y="399.19" transform="matrix(-1 -7.966484e-11 7.966484e-11 -1 682.1541 818.5605)" class="st0" width="78.25" height="20.18"/><rect x="301.95" y="371.98" transform="matrix(-1 1.374548e-10 -1.374548e-10 -1 682.1541 764.1437)" class="st0" width="78.25" height="20.18"/><rect x="301.95" y="344.77" transform="matrix(-1 8.510223e-10 -8.510223e-10 -1 682.1541 709.7269)" class="st0" width="78.25" height="20.18"/><rect x="301.95" y="317.56" transform="matrix(-1 8.513944e-10 -8.513944e-10 -1 682.1541 655.3101)" class="st0" width="78.25" height="20.18"/><rect x="211.74" y="290.36" transform="matrix(-1 8.513709e-10 -8.513709e-10 -1 501.7239 600.8933)" class="st0" width="78.25" height="20.18"/><rect x="211.74" y="399.19" transform="matrix(-1 -7.966484e-11 7.966484e-11 -1 501.7239 818.5605)" class="st0" width="78.25" height="20.18"/><rect x="211.74" y="371.98" transform="matrix(-1 1.374548e-10 -1.374548e-10 -1 501.7239 764.1437)" class="st0" width="78.25" height="20.18"/><rect x="121.52" y="399.19" transform="matrix(-1 -7.966484e-11 7.966484e-11 -1 321.2938 818.5605)" class="st0" width="78.25" height="20.18"/><rect x="121.52" y="371.98" transform="matrix(-1 1.374548e-10 -1.374548e-10 -1 321.2938 764.1437)" class="st0" width="78.25" height="20.18"/><rect x="211.74" y="344.77" transform="matrix(-1 8.510223e-10 -8.510223e-10 -1 501.7239 709.7269)" class="st0" width="78.25" height="20.18"/><rect x="211.74" y="317.56" transform="matrix(-1 8.513944e-10 -8.513944e-10 -1 501.7239 655.3101)" class="st0" width="78.25" height="20.18"/><rect x="31.31" y="399.19" transform="matrix(-1 -7.966484e-11 7.966484e-11 -1 140.8636 818.5605)" class="st0" width="78.25" height="20.18"/><rect x="31.31" y="371.98" transform="matrix(-1 1.374548e-10 -1.374548e-10 -1 140.8636 764.1437)" class="st0" width="78.25" height="20.18"/><rect x="31.31" y="344.77" transform="matrix(-1 8.510223e-10 -8.510223e-10 -1 140.8636 709.7269)" class="st0" width="78.25" height="20.18"/></g></g></svg>