<svg version="1.1" id="Layer_1" xmlns="http://www.w3.org/2000/svg" xmlns:xlink="http://www.w3.org/1999/xlink" x="0px" y="0px" viewBox="0 0 884.95 436.84" style="enable-background:new 0 0 884.95 436.84;" xml:space="preserve" width="100%" height="100%" preserveAspectRatio="none"><style type="text/css"> .st0{fill:#FFFFFF;} .st1{fill:#FFF200;} </style><g><path class="st0" d="M379.51,112.24h-23.09l-3.44,16.34h-11.67L361.82,41h11.67l21.25,87.58h-11.67L379.51,112.24z M358.75,101.43 h18.3l-8.23-37.34l-1.11-12.77l-1.11,12.77L358.75,101.43z"/><path class="st0" d="M404.31,128.58V41h11.55v76.52h26.41v11.06H404.31z"/><path class="st0" d="M453.2,128.58V41h11.55v76.52h26.41v11.06H453.2z"/><path class="st0" d="M542.62,128.58h-40.54V41h39.31v10.44h-27.88v27.27h24.2V89.4h-24.2v28.37h29.11V128.58z"/><path class="st0" d="M78.4,249.1H53.34l-3.81,14.49H29.51l26.16-88.07H75.7l26.65,88.07h-19.9L78.4,249.1z M65.63,202.55 l-7.98,30.09h16.34L65.63,202.55z"/><path class="st0" d="M152.58,249.1h-25.06l-3.81,14.49H103.7l26.16-88.07h20.02l26.66,88.07h-19.9L152.58,249.1z M139.81,202.55 l-7.98,30.09h16.34L139.81,202.55z"/><path class="st0" d="M200.97,211.02v52.57h-18.42v-88.07h18.3l28.38,52.08v-52.08h18.3v88.07h-17.81L200.97,211.02z"/><path class="st0" d="M259.81,263.6v-88.07h29.97c21.25,0,29.97,7.49,29.97,21.37v3.19c0,9.58-3.44,15.11-10.32,18.18 c7.86,2.83,12.04,8.35,12.04,17.93v3.68c0,15.23-8.23,23.71-28.25,23.71H259.81z M279.22,191.25v19.41h10.93 c7.25,0,10.32-2.58,10.32-8.72v-2.83c0-5.28-3.07-7.86-10.32-7.86H279.22z M279.22,226.25v20.39h10.32c9.09,0,11.79-2.7,11.79-8.72 v-3.07c0-5.9-3.19-8.6-11.92-8.6H279.22z"/><path class="st0" d="M327.85,263.6v-18.55h13.02V193.7h-13.02v-18.18h45.2v18.18h-12.9v51.34h12.9v18.55H327.85z"/><path class="st0" d="M437.66,263.6H383v-88.07h53.68v17.2h-34.15v17.69h30.46v17.32h-30.46v17.93h35.13V263.6z"/><path class="st0" d="M446.75,175.52h28.74c18.92,0,33.66,10.19,33.66,34.15v19.78c0,23.83-14.25,34.15-33.53,34.15h-28.87V175.52z M466.65,192.47v53.8h7.98c8.48,0,14.13-5.65,14.13-18.67v-16.34c0-13.27-5.77-18.79-14.37-18.79H466.65z"/><path class="st0" d="M514.67,263.6v-18.55h13.02V193.7h-13.02v-18.18h45.2v18.18h-12.9v51.34h12.9v18.55H514.67z"/><path class="st0" d="M588.25,211.02v52.57h-18.43v-88.07h18.3l28.37,52.08v-52.08h18.3v88.07h-17.81L588.25,211.02z"/><path class="st0" d="M692.65,246.15c-1.97,11.18-8.72,19.04-21.62,19.04c-17.69,0-25.79-10.69-25.79-34.76v-21.25 c0-23.95,13.02-35.13,33.53-35.13c20.27,0,31.08,10.2,31.32,29.36v4.3h-20.27v-3.68c-0.25-7.86-3.32-12.28-11.3-12.28 c-8.97,0-12.9,5.77-12.9,18.42v19.04c0,13.39,3.93,18.3,12.77,18.3c8.11,0,11.92-5.9,11.92-14.12v-2.33h-13.39v-14.62h33.17v47.17 h-15.48L692.65,246.15z"/><path class="st0" d="M776.05,263.6h-54.66v-88.07h53.68v17.2h-34.15v17.69h30.46v17.32h-30.46v17.93h35.13V263.6z"/><path class="st0" d="M803.56,211.02v52.57h-18.42v-88.07h18.3l28.38,52.08v-52.08h18.3v88.07H832.3L803.56,211.02z"/><path class="st0" d="M203.44,398.61H193l-13.88-87.58h11.3l8.35,56.87l0.49,18.79l1.72-16.95l12.65-58.71h7.98l11.92,58.71 l1.6,17.81l1.11-19.65l9.58-56.87h11.05l-15.84,87.58h-10.44l-11.92-60.07l-1.11-14.37l-1.11,14.49L203.44,398.61z"/><path class="st0" d="M307.72,398.61h-40.54v-87.58h39.31v10.44h-27.88v27.27h24.2v10.69h-24.2v28.37h29.11V398.61z"/><path class="st0" d="M359.67,398.61h-40.54v-87.58h39.31v10.44h-27.88v27.27h24.2v10.69h-24.2v28.37h29.11V398.61z"/><path class="st0" d="M382.52,363.24v35.38h-11.42v-87.58h22.23c16.58,0,23.34,7.25,23.34,20.27v9.83c0,8.84-3.69,14.13-10.56,16.71 c6.76,2.09,9.58,7,9.58,16.34v19.29c0,2.46,0.86,3.93,2.33,5.16h-12.77c-0.98-0.98-1.47-3.07-1.47-5.41v-18.67 c0-7.62-2.33-11.3-10.93-11.3H382.52z M382.52,321.1v31.94h10.56c8.48,0,11.92-4.3,11.92-12.53v-8.23 c0-7.62-3.56-11.18-12.16-11.18H382.52z"/><path class="st0" d="M467.27,384.24c-1.96,10.44-7.86,15.6-18.06,15.6c-14,0-21.62-8.97-21.62-27.02v-35.75 c0-18.06,9.46-27.15,25.43-27.15c14.99,0,23.46,8.23,23.46,22.23v9.83h-12.04v-9.58c0-6.88-3.07-12.16-11.67-12.16 c-9.21,0-13.39,5.9-13.39,17.44v34.27c0,11.92,4.05,17.07,13.14,17.07c8.84,0,12.28-7.37,12.28-15.6v-9.7h-13.27v-10.32h24.94v45.2 h-7.37L467.27,384.24z"/><path class="st0" d="M531.01,398.61h-40.54v-87.58h39.31v10.44H501.9v27.27h24.2v10.69h-24.2v28.37h29.11V398.61z"/><path class="st0" d="M559.01,398.61l-21-87.58h11.91l13.88,63.63l1.11,12.41l0.98-12.41l13.63-63.63h11.91l-20.76,87.58H559.01z"/><path class="st0" d="M641.55,398.61h-40.53v-87.58h39.31v10.44h-27.88v27.27h24.2v10.69h-24.2v28.37h29.11V398.61z"/><path class="st0" d="M663.54,398.61h-10.56v-87.58h10.07l24.93,56.01l5.28,14.99l-1.84-15.97v-55.03h10.69v87.58h-9.95 l-25.43-56.63l-5.16-17.57l1.97,19.04V398.61z"/></g></svg>